<?xml version="1.0" encoding="utf-8"?>
<!-- Generator: Adobe Illustrator 24.0.1, SVG Export Plug-In . SVG Version: 6.00 Build 0)  -->
<svg version="1.1" id="Layer_1" xmlns="http://www.w3.org/2000/svg" xmlns:xlink="http://www.w3.org/1999/xlink" x="0px" y="0px"
	 viewBox="0 0 1366 768" style="enable-background:new 0 0 1366 768;" xml:space="preserve">
<style type="text/css">
	.st0{fill:#C7B299;}
	.st1{fill:#0084A2;}
	.st2{font-family:'ForteMT';}
	.st3{font-size:454.877px;}
</style>
<g>
	<path class="st0" d="M659,599.5c-72.53,0-140.72-25.23-192-71.05c-51.27-45.8-79.5-106.69-79.5-171.45
		c0-64.76,28.23-125.65,79.5-171.45c51.28-45.81,119.47-71.05,192-71.05c72.53,0,140.72,25.23,192,71.05
		c51.27,45.8,79.5,106.69,79.5,171.45c0,64.76-28.23,125.65-79.5,171.45C799.72,574.27,731.53,599.5,659,599.5z"/>
	<path class="st1" d="M659,115c36.6,0,72.1,6.4,105.52,19.03c32.27,12.2,61.26,29.65,86.15,51.89
		c24.88,22.23,44.41,48.11,58.05,76.92C922.84,292.66,930,324.34,930,357s-7.16,64.34-21.28,94.16
		c-13.64,28.81-33.17,54.7-58.05,76.92c-24.89,22.23-53.87,39.69-86.15,51.89C731.1,592.6,695.6,599,659,599s-72.1-6.4-105.52-19.03
		c-32.27-12.2-61.26-29.65-86.15-51.89c-24.88-22.23-44.41-48.11-58.05-76.92C395.16,421.34,388,389.66,388,357
		s7.16-64.34,21.28-94.16c13.64-28.81,33.17-54.7,58.05-76.92c24.89-22.23,53.87-39.69,86.15-51.89C586.9,121.4,622.4,115,659,115
		 M659,114c-150.22,0-272,108.79-272,243s121.78,243,272,243s272-108.79,272-243S809.22,114,659,114L659,114z"/>
</g>
<text transform="matrix(1 0 0 1 555.625 503.0313)" class="st2 st3">T</text>
</svg>
